<?xml version="1.0" standalone="no"?>
<!DOCTYPE svg PUBLIC "-//W3C//DTD SVG 20010904//EN"
 "http://www.w3.org/TR/2001/REC-SVG-20010904/DTD/svg10.dtd">
<svg version="1.0" xmlns="http://www.w3.org/2000/svg"
 width="700.000000pt" height="700.000000pt" viewBox="0 0 700.000000 700.000000"
 preserveAspectRatio="xMidYMid meet">
<metadata>
Created by potrace 1.11, written by Peter Selinger 2001-2013
</metadata>
<g transform="translate(0.000000,700.000000) scale(0.100000,-0.100000)"
fill="#000000" stroke="none">
<path d="M156 6993 c-40 -10 -97 -54 -123 -96 l-28 -42 0 -3355 0 -3355 28
-42 c15 -24 46 -55 70 -70 l42 -28 3355 0 3355 0 42 28 c24 15 55 46 70 70
l28 42 0 3355 0 3355 -28 42 c-15 24 -46 55 -70 70 l-42 28 -3340 1 c-1837 1
-3349 -1 -3359 -3z m2924 -2583 c0 -401 3 -730 8 -730 4 1 75 94 157 208 83
114 332 442 555 730 l405 522 402 0 c222 0 403 -2 403 -5 0 -2 -254 -323 -565
-712 -325 -406 -564 -714 -562 -723 2 -8 257 -400 567 -870 310 -470 572 -870
582 -887 l20 -33 -394 0 -393 1 -335 525 c-184 289 -371 581 -416 650 l-80
125 -177 -191 -177 -190 0 -460 0 -460 -330 0 -330 0 0 1615 0 1615 330 0 330
0 0 -730z"/>
</g>
</svg>
