<svg xmlns="http://www.w3.org/2000/svg" viewBox="0 0 42 42">
  <g fill="none" fill-rule="evenodd" stroke="#F8F8F8" stroke-linecap="round" stroke-linejoin="round" stroke-width="2">
    <path d="M39.62 41H2.38C1.616 41 1 40.383 1 39.62V9.277h40V39.62c0 .762-.617 1.379-1.38 1.379zM1 9.276V2.379C1 1.617 1.617 1 2.38 1h37.24c.763 0 1.38.617 1.38 1.38v6.896H1z"/>
    <path d="M7.897 5.138a2.069 2.069 0 1 0-4.138 0 2.069 2.069 0 0 0 4.138 0zm6.896 0a2.069 2.069 0 1 0-4.138 0 2.069 2.069 0 0 0 4.138 0zm6.897 0a2.069 2.069 0 1 0-4.138 0 2.069 2.069 0 0 0 4.138 0zM5.138 12.724h5.517M5.138 21h5.517m-3.448-4.138h9.655M5.138 25.138h11.724m-9.655 4.138h7.586m-7.586 8.276h7.586m-5.517-4.138h9.655m19.31-2.07V18.932a1.38 1.38 0 0 0-1.379-1.38H24.448a1.38 1.38 0 0 0-1.379 1.38v4.138L21 25.138l2.069 2.069v4.138c0 .762.617 1.38 1.38 1.38h12.413a1.38 1.38 0 0 0 1.38-1.38z"/>
    <path d="M28.586 29.276c-.757 0-1.38-.622-1.38-1.38v-1.379l-1.378-1.388 1.379-1.37v-1.38c0-.757.622-1.379 1.38-1.379m4.137 8.276c.757 0 1.38-.622 1.38-1.38v-1.379l1.379-1.38-1.38-1.378v-1.38c0-.757-.622-1.379-1.379-1.379"/>
  </g>
</svg>
