<svg xmlns="http://www.w3.org/2000/svg" viewBox="0 0 42 42">
  <g fill="none" fill-rule="evenodd">
    <path stroke="#212121" stroke-linecap="round" stroke-linejoin="round" stroke-width="2" d="M26 34l-2-1m-6 7l.843 1M19 16l-1 2m6 6.843L25 24M1 23l2 1m6.843-7L9 16M8 41l1-2m-7-6l-1 .843"/>
    <path fill="#FFF" d="M39 12a9 9 0 0 1-9 9 9 9 0 0 1-9-9 9 9 0 0 1 9-9 9 9 0 0 1 9 9z"/>
    <path stroke="#212121" stroke-linecap="round" stroke-linejoin="round" stroke-width="2" d="M39 12a9 9 0 0 1-9 9 9 9 0 0 1-9-9 9 9 0 0 1 9-9 9 9 0 0 1 9 9zm-9-8.938V1m0 22v-2.063M38.938 12H41m-22 0h2.063m15.256-6.32l1.243-1.242M22.438 19.563l1.242-1.243m12.952.31l.972.974M22.438 4.438L23.68 5.68"/>
    <path stroke="#212121" stroke-linecap="round" stroke-linejoin="round" stroke-width="2" d="M32 12a2 2 0 1 1-4 0 2 2 0 0 1 4 0z"/>
    <path fill="#FFF" d="M25 28.5C25 34.851 19.851 40 13.5 40S2 34.851 2 28.5 7.149 17 13.5 17 25 22.149 25 28.5z"/>
    <path stroke="#212121" stroke-linecap="round" stroke-linejoin="round" stroke-width="2" d="M25 28.5C25 34.851 19.851 40 13.5 40S2 34.851 2 28.5 7.149 17 13.5 17 25 22.149 25 28.5zM17.476 40l-3.567-9.144m.09-3.882L18 18M2 33.212l9.179-3.558"/>
    <path stroke="#212121" stroke-linecap="round" stroke-linejoin="round" stroke-width="2" d="M15 29a2 2 0 1 1-4 0 2 2 0 0 1 4 0z"/>
  </g>
</svg>
