<svg xmlns="http://www.w3.org/2000/svg" xmlns:xlink="http://www.w3.org/1999/xlink" viewBox="0 0 49 49">
  <defs>
    <path id="keyboard-b" d="M1.24286017,33.1911258 C0.631038759,32.5792791 0.631038759,31.5873064 1.24286017,30.9754597 L30.9752403,1.24221 C31.2690474,0.948402315 31.6675357,0.783342827 32.0830421,0.783342827 C32.4985485,0.783342827 32.8970367,0.948402315 33.1908438,1.24221 L45.7571398,13.8088742 C46.3689612,14.4207209 46.3689612,15.4126936 45.7571398,16.0245403 L16.0247597,45.75779 C15.7309526,46.0515977 15.3324643,46.2166572 14.9169579,46.2166572 C14.5014515,46.2166572 14.1029633,46.0515977 13.8091562,45.75779"/>
    <filter id="keyboard-a" width="113.2%" height="113.2%" x="-6.6%" y="-6.6%" filterUnits="objectBoundingBox">
      <feGaussianBlur in="SourceAlpha" result="shadowBlurInner1" stdDeviation="1.5"/>
      <feOffset dy="1" in="shadowBlurInner1" result="shadowOffsetInner1"/>
      <feComposite in="shadowOffsetInner1" in2="SourceAlpha" k2="-1" k3="1" operator="arithmetic" result="shadowInnerInner1"/>
      <feColorMatrix in="shadowInnerInner1" values="0 0 0 0 0   0 0 0 0 0   0 0 0 0 0  0 0 0 0.5 0"/>
    </filter>
  </defs>
  <g fill="none" fill-rule="evenodd" transform="translate(1 1)">
    <g fill-rule="nonzero" transform="translate(1)">
      <path fill="#E3E7F2" d="M12.6670655,13.8120302 L11.5522836,14.9323017 C11.3271528,15.1585437 11.2922251,15.5130162 11.4688319,15.7792319 L13.0542517,18.1690722 L14.2089284,19.1183017 L17.262931,16.366878 L15.8879716,15.3214071 L13.5098457,13.7281776 C13.2449386,13.5506982 12.8921953,13.5857945 12.6670655,13.8120302 Z"/>
      <path fill="#B2EBF2" d="M44.5422414,15.9518644 L15.0982759,45.54 C14.7807229,45.8667325 14.3323553,46.0303127 13.8801724,45.9844068 C13.5096034,45.967949 13.1595495,45.8088159 12.9025862,45.54 L0.457758621,33.0342373 C-0.147428048,32.424473 -0.147428048,31.4375609 0.457758621,30.8277966 L28.7922414,2.35457627 L29.9017241,1.23966102 C30.1913391,0.944147513 30.5868268,0.777747882 30.999569,0.777747882 C31.4123111,0.777747882 31.8077988,0.944147513 32.0974138,1.23966102 L44.5422414,13.7454237 C45.1474579,14.3551756 45.1474579,15.3421125 44.5422414,15.9518644 Z"/>
      <path fill="#E3E7F2" d="M42.2146552,17.5111864 L13.8801724,45.9844068 C13.5096034,45.967949 13.1595495,45.8088159 12.9025862,45.54 L0.457758621,33.0342373 C-0.147428048,32.424473 -0.147428048,31.4375609 0.457758621,30.8277966 L28.7922414,2.35457627 C29.1619622,2.37456464 29.5107856,2.53313835 29.7698276,2.79898305 L42.2146552,15.3047458 C42.5087735,15.5957546 42.6743935,15.9931878 42.6743935,16.4079661 C42.6743935,16.8227444 42.5087735,17.2201776 42.2146552,17.5111864 Z"/>
      <path fill="#E3E7F2" d="M4.60373156,30.2548908 L6.39161259,30.2548908 C6.82010938,30.2548908 7.16747466,30.6039568 7.16747466,31.0345518 L7.16747466,32.831187 C7.16747466,33.2617819 6.82010938,33.610848 6.39161259,33.610848 L4.60368501,33.610848 C4.17518822,33.610848 3.82782294,33.2617819 3.82782294,32.831187 L3.82782294,31.034583 C3.82782294,30.603988 4.17518822,30.2549219 4.60368501,30.2549219 L4.60373156,30.2548908 Z" transform="rotate(-45.001 5.498 31.933)"/>
      <path fill="#E3E7F2" d="M8.85431627,34.526414 L10.6421973,34.526414 C11.0706941,34.526414 11.4180594,34.8754801 11.4180594,35.306075 L11.4180594,37.1027103 C11.4180594,37.5333051 11.0706941,37.8823713 10.6421973,37.8823713 L8.85426972,37.8823713 C8.42577289,37.8823713 8.07840765,37.5333051 8.07840765,37.1027103 L8.07840765,35.306114 C8.07839733,35.0993202 8.16014154,34.9009933 8.30565509,34.7547686 C8.45116864,34.6085441 8.64853003,34.5264016 8.85431627,34.526414 Z" transform="rotate(-45.001 9.748 36.204)"/>
      <path fill="#E3E7F2" d="M13.1049016,38.7979403 L14.8927826,38.7979403 C15.3212794,38.7979403 15.6686447,39.1470064 15.6686447,39.5776013 L15.6686447,41.3742365 C15.6686447,41.8048314 15.3212794,42.1538976 14.8927826,42.1538976 L13.104855,42.1538976 C12.6763583,42.1538976 12.3289929,41.8048314 12.3289929,41.3742365 L12.3289929,39.5776325 C12.3289929,39.1470375 12.6763583,38.7979715 13.104855,38.7979715 L13.1049016,38.7979403 Z" transform="rotate(-45.001 13.999 40.476)"/>
      <path fill="#E3E7F2" d="M8.85431749,25.9833635 L10.6421985,25.9833635 C11.0706954,25.9833635 11.4180606,26.3324296 11.4180606,26.7630245 L11.4180606,28.5596598 C11.4180606,28.9902546 11.0706954,29.3393208 10.6421985,29.3393208 L8.85427094,29.3393208 C8.42577419,29.3393208 8.07840887,28.9902546 8.07840887,28.5596598 L8.07840887,26.7630635 C8.07839863,26.5562697 8.16014284,26.3579428 8.30565639,26.2117182 C8.45116994,26.0654936 8.64853133,25.9833511 8.85431749,25.9833635 Z" transform="rotate(-45.001 9.748 27.661)"/>
      <path fill="#E3E7F2" d="M13.1049026,30.254897 L14.8927836,30.254897 C15.3212804,30.254897 15.6686457,30.603963 15.6686457,31.034558 L15.6686457,32.8311932 C15.6686457,33.2617881 15.3212804,33.6108542 14.8927836,33.6108542 L13.1048561,33.6108542 C12.6763592,33.6108542 12.328994,33.2617881 12.328994,32.8311932 L12.328994,31.0345892 C12.3289857,30.8277967 12.4107308,30.6294718 12.5562441,30.4832488 C12.7017575,30.337026 12.8991177,30.2548846 13.1049026,30.254897 Z" transform="rotate(-45.001 13.999 31.933)"/>
      <path fill="#E3E7F2" d="M17.3554873,34.5264125 L19.1433683,34.5264125 C19.5718651,34.5264125 19.9192304,34.8754786 19.9192304,35.3060735 L19.9192304,37.1027087 C19.9192304,37.5333036 19.5718651,37.8823698 19.1433683,37.8823698 L17.3554407,37.8823698 C16.9269439,37.8823698 16.5795787,37.5333036 16.5795787,37.1027087 L16.5795787,35.3061125 C16.5795787,34.8755175 16.9269439,34.5264514 17.3554407,34.5264514 L17.3554873,34.5264125 Z" transform="rotate(-45.001 18.25 36.204)"/>
      <path fill="#E3E7F2" d="M13.1049038,21.7118465 L14.8927849,21.7118465 C15.3212816,21.7118465 15.6686469,22.0609126 15.6686469,22.4915075 L15.6686469,24.2881427 C15.6686469,24.7187377 15.3212816,25.0678038 14.8927849,25.0678038 L13.1048573,25.0678038 C12.6763604,25.0678038 12.3289952,24.7187377 12.3289952,24.2881427 L12.3289952,22.4915387 C12.3289952,22.0609438 12.6763604,21.7118776 13.1048573,21.7118776 L13.1049038,21.7118465 Z" transform="rotate(-45.001 13.999 23.39)"/>
      <path fill="#E3E7F2" d="M17.3554891,25.9833617 L19.1433701,25.9833617 C19.5718669,25.9833617 19.9192322,26.3324278 19.9192322,26.7630228 L19.9192322,28.559658 C19.9192322,28.9902529 19.5718669,29.339319 19.1433701,29.339319 L17.3554425,29.339319 C16.9269458,29.339319 16.5795804,28.9902529 16.5795804,28.559658 L16.5795804,26.7630617 C16.5795804,26.3324668 16.9269458,25.9834007 17.3554425,25.9834007 L17.3554891,25.9833617 Z" transform="rotate(-45.001 18.25 27.661)"/>
      <path fill="#E3E7F2" d="M17.3554901,17.4403106 L19.1433711,17.4403106 C19.5718679,17.4403106 19.9192332,17.7893768 19.9192332,18.2199716 L19.9192332,20.0166069 C19.9192332,20.4472018 19.5718679,20.7962679 19.1433711,20.7962679 L17.3554436,20.7962679 C16.9269467,20.7962679 16.5795815,20.4472018 16.5795815,20.0166069 L16.5795815,18.2200106 C16.5795815,17.7894158 16.9269467,17.4403496 17.3554436,17.4403496 L17.3554901,17.4403106 Z" transform="rotate(-45.001 18.25 19.118)"/>
      <path fill="#E3E7F2" d="M21.6060748,21.7118449 L23.3939559,21.7118449 C23.8224526,21.7118449 24.1698179,22.0609111 24.1698179,22.4915059 L24.1698179,24.2881412 C24.1698179,24.7187361 23.8224526,25.0678022 23.3939559,25.0678022 L21.6060283,25.0678022 C21.1775315,25.0678022 20.8301662,24.7187361 20.8301662,24.2881412 L20.8301662,22.4915371 C20.830158,22.2847447 20.9119031,22.0864197 21.0574164,21.9401969 C21.2029298,21.7939739 21.40029,21.7118325 21.6060748,21.7118449 Z" transform="rotate(-45.001 22.5 23.39)"/>
      <path fill="#E3E7F2" d="M21.6060758,13.1687939 L23.3939569,13.1687939 C23.8224537,13.1687939 24.1698189,13.51786 24.1698189,13.9484549 L24.1698189,15.7450901 C24.1698189,16.1756851 23.8224537,16.5247511 23.3939569,16.5247511 L21.6060293,16.5247511 C21.1775325,16.5247511 20.8301672,16.1756851 20.8301672,15.7450901 L20.8301672,13.9484861 C20.830159,13.7416936 20.9119041,13.5433687 21.0574174,13.3971458 C21.2029308,13.2509229 21.400291,13.1687815 21.6060758,13.1687939 Z" transform="rotate(-45.001 22.5 14.847)"/>
      <path fill="#E3E7F2" d="M25.8566611,17.4403169 L27.6445421,17.4403169 C28.0730389,17.4403169 28.4204042,17.789383 28.4204042,18.2199779 L28.4204042,20.0166131 C28.4204042,20.4472081 28.0730389,20.7962742 27.6445421,20.7962742 L25.8566146,20.7962742 C25.4281177,20.7962742 25.0807525,20.4472081 25.0807525,20.0166131 L25.0807525,18.2200169 C25.0807525,17.789422 25.4281177,17.4403559 25.8566146,17.4403559 L25.8566611,17.4403169 Z" transform="rotate(-45.001 26.75 19.118)"/>
      <path fill="#E3E7F2" d="M25.8566623,8.89726637 L27.6445434,8.89726637 C28.0730402,8.89726637 28.4204054,9.24633253 28.4204054,9.67692739 L28.4204054,11.4735626 C28.4204054,11.9041576 28.0730402,12.2532237 27.6445434,12.2532237 L25.8566158,12.2532237 C25.428119,12.2532237 25.0807537,11.9041576 25.0807537,11.4735626 L25.0807537,9.67696637 C25.0807537,9.24637152 25.428119,8.89730535 25.8566158,8.89730535 L25.8566623,8.89726637 Z" transform="rotate(-45.001 26.75 10.575)"/>
      <path fill="#E3E7F2" d="M30.1072547,13.1687923 L31.8951357,13.1687923 C32.3236325,13.1687923 32.6709978,13.5178584 32.6709978,13.9484534 L32.6709978,15.7450886 C32.6709978,16.1756835 32.3236325,16.5247496 31.8951357,16.5247496 L30.1072081,16.5247496 C29.6787114,16.5247496 29.331346,16.1756835 29.331346,15.7450886 L29.331346,13.9484846 C29.331346,13.5178896 29.6787114,13.1688235 30.1072081,13.1688235 L30.1072547,13.1687923 Z" transform="rotate(-45.001 31.001 14.847)"/>
      <path fill="#E3E7F2" d="M34.3578399,17.4403153 L36.1457209,17.4403153 C36.5742177,17.4403153 36.921583,17.7893815 36.921583,18.2199763 L36.921583,20.0166116 C36.921583,20.4472065 36.5742177,20.7962726 36.1457209,20.7962726 L34.3577933,20.7962726 C33.9292965,20.7962726 33.5819313,20.4472065 33.5819313,20.0166116 L33.5819313,18.2200153 C33.5819313,17.7894205 33.9292965,17.4403543 34.3577933,17.4403543 L34.3578399,17.4403153 Z" transform="rotate(-45.001 35.252 19.118)"/>
      <path fill="#E3E7F2" d="M38.6084394,13.168785 L40.3963204,13.168785 C40.8248173,13.168785 41.1721825,13.5178512 41.1721825,13.948446 L41.1721825,15.7450813 C41.1721825,16.1756762 40.8248173,16.5247423 40.3963204,16.5247423 L38.6083773,16.5247423 C38.1798806,16.5247423 37.8325153,16.1756762 37.8325153,15.7450813 L37.8325153,13.9484772 C37.832507,13.741682 37.9142543,13.5433547 38.059771,13.3971314 C38.2052877,13.250908 38.4026518,13.1687685 38.6084394,13.168785 Z" transform="rotate(-45.001 39.502 14.847)"/>
      <path fill="#E3E7F2" d="M19.8453358,25.9833627 L33.6558669,25.9833627 C34.0843636,25.9833627 34.4317289,26.3324289 34.4317289,26.7630238 L34.4317289,28.559659 C34.4317289,28.9902539 34.0843636,29.33932 33.6558669,29.33932 L19.845297,29.33932 C19.4168002,29.33932 19.069435,28.9902539 19.069435,28.559659 L19.069435,26.7630627 C19.069435,26.3324679 19.4168002,25.9834017 19.845297,25.9834017 L19.8453358,25.9833627 Z" transform="rotate(-45.001 26.75 27.661)"/>
    </g>
    <path fill="#00BCD4" fill-rule="nonzero" d="M4.01233517 35.9606635C4.31698429 35.6542416 4.31698429 35.1593111 4.01233517 34.8528892L1.79677867 32.6372308.688957333 33.745013 2.90451383 35.9606635C3.21096067 36.2652967 3.70588833 36.2652967 4.01233517 35.9606635zM13.2552298 46.3116693L14.363059 45.203895 8.44349517 39.2841667C8.13759175 38.9782481 7.641612 38.9782358 7.33569343 39.2841392 7.02977486 39.5900427 7.02976258 40.0860224 7.335666 40.391941L13.2552298 46.3116693zM6.22789167 37.0684848C6.07908927 36.9240459 5.88131737 36.8409923 5.6740045 36.8358818L5.5244505 36.8523788C5.47251454 36.8622349 5.42212501 36.8789735 5.3746145 36.9021518 5.3272511 36.9176536 5.28247946 36.9401688 5.2417925 36.9689467 5.19899432 36.9992926 5.15833951 37.0325535 5.12011733 37.0684927 4.97551901 37.2171896 4.89243791 37.415027 4.88751433 37.6223798 4.88262341 37.8862133 5.01277645 38.1342824 5.23264522 38.2801925 5.45251399 38.4261025 5.7316616 38.4496549 5.97286967 38.342647 6.06792995 38.304401 6.15457091 38.2478911 6.22789167 38.176314 6.37666665 38.0304052 6.46049276 37.8307822 6.46049276 37.6223994 6.46049276 37.4140166 6.37666665 37.2143937 6.22789167 37.0684848z"/>
    <g stroke-linecap="round" stroke-linejoin="round">
      <use fill="#000" filter="url(#keyboard-a)" xlink:href="#keyboard-b"/>
      <use stroke="#00BCD4" stroke-width="2" xlink:href="#keyboard-b"/>
    </g>
    <path stroke="#00BCD4" stroke-linecap="round" stroke-linejoin="round" stroke-width="2" d="M5.43139713,30.3973957 L7.23649479,30.3973957 C7.66911785,30.3973957 8.01982809,30.7481059 8.01982809,31.180729 L8.01982809,32.9858267 C8.01982809,33.4184497 7.66911785,33.76916 7.23649479,33.76916 L5.43135013,33.76916 C4.99872707,33.76916 4.64801679,33.4184497 4.64801679,32.9858267 L4.64801679,31.1807604 C4.64801679,30.7481373 4.99872707,30.397427 5.43135013,30.397427 L5.43139713,30.3973957 Z" transform="rotate(-45.001 6.334 32.083)"/>
    <path stroke="#00BCD4" stroke-linecap="round" stroke-linejoin="round" stroke-width="2" d="M9.72291339,34.6890384 L11.5280111,34.6890384 C11.9606341,34.6890384 12.3113444,35.0397487 12.3113444,35.4723718 L12.3113444,37.2774694 C12.3113444,37.7100925 11.9606341,38.0608028 11.5280111,38.0608028 L9.72286639,38.0608028 C9.2902433,38.0608028 8.93953306,37.7100925 8.93953306,37.2774694 L8.93953306,35.4724109 C8.93952264,35.2646431 9.02205401,35.065382 9.1689688,34.9184686 C9.3158836,34.7715553 9.5151455,34.6890259 9.72291339,34.6890384 Z" transform="rotate(-45.001 10.625 36.375)"/>
    <path stroke="#00BCD4" stroke-linecap="round" stroke-linejoin="round" stroke-width="2" d="M14.0144302,38.9806842 L15.8195279,38.9806842 C16.252151,38.9806842 16.6028612,39.3313944 16.6028612,39.7640175 L16.6028612,41.5691152 C16.6028612,42.0017382 16.252151,42.3524485 15.8195279,42.3524485 L14.0143832,42.3524485 C13.5817602,42.3524485 13.2310499,42.0017382 13.2310499,41.5691152 L13.2310499,39.7640489 C13.2310499,39.3314258 13.5817602,38.9807155 14.0143832,38.9807155 L14.0144302,38.9806842 Z" transform="rotate(-45.001 14.917 40.667)"/>
    <path stroke="#00BCD4" stroke-linecap="round" stroke-linejoin="round" stroke-width="2" d="M9.72291462,26.1057489 L11.5280123,26.1057489 C11.9606354,26.1057489 12.3113456,26.4564592 12.3113456,26.8890823 L12.3113456,28.6941799 C12.3113456,29.1268029 11.9606354,29.4775133 11.5280123,29.4775133 L9.72286762,29.4775133 C9.29024461,29.4775133 8.93953429,29.1268029 8.93953429,28.6941799 L8.93953429,26.8891214 C8.93952395,26.6813535 9.02205532,26.4820925 9.16897012,26.3351792 C9.31588491,26.1882658 9.51514682,26.1057365 9.72291462,26.1057489 Z" transform="rotate(-45.001 10.625 27.792)"/>
    <path stroke="#00BCD4" stroke-linecap="round" stroke-linejoin="round" stroke-width="2" d="M14.0144313,30.3974019 L15.819529,30.3974019 C16.252152,30.3974019 16.6028623,30.7481122 16.6028623,31.1807352 L16.6028623,32.9858329 C16.6028623,33.4184559 16.252152,33.7691662 15.819529,33.7691662 L14.0143843,33.7691662 C13.5817612,33.7691662 13.231051,33.4184559 13.231051,32.9858329 L13.231051,31.1807666 C13.2310426,30.9730001 13.3135749,30.773741 13.4604895,30.6268294 C13.607404,30.4799178 13.8066647,30.3973895 14.0144313,30.3974019 Z" transform="rotate(-45.001 14.917 32.083)"/>
    <path stroke="#00BCD4" stroke-linecap="round" stroke-linejoin="round" stroke-width="2" d="M18.3059475,34.6890369 L20.1110452,34.6890369 C20.5436682,34.6890369 20.8943785,35.0397471 20.8943785,35.4723702 L20.8943785,37.2774679 C20.8943785,37.7100909 20.5436682,38.0608012 20.1110452,38.0608012 L18.3059005,38.0608012 C17.8732774,38.0608012 17.5225672,37.7100909 17.5225672,37.2774679 L17.5225672,35.4724094 C17.5225672,35.0397863 17.8732774,34.689076 18.3059005,34.689076 L18.3059475,34.6890369 Z" transform="rotate(-45.001 19.208 36.375)"/>
    <path stroke="#00BCD4" stroke-linecap="round" stroke-linejoin="round" stroke-width="2" d="M14.0144325,21.8141124 L15.8195302,21.8141124 C16.2521532,21.8141124 16.6028635,22.1648227 16.6028635,22.5974457 L16.6028635,24.4025434 C16.6028635,24.8351665 16.2521532,25.1858767 15.8195302,25.1858767 L14.0143855,25.1858767 C13.5817624,25.1858767 13.2310522,24.8351665 13.2310522,24.4025434 L13.2310522,22.5974771 C13.2310522,22.1648541 13.5817624,21.8141437 14.0143855,21.8141437 L14.0144325,21.8141124 Z" transform="rotate(-45.001 14.917 23.5)"/>
    <path stroke="#00BCD4" stroke-linecap="round" stroke-linejoin="round" stroke-width="2" d="M18.3059493,26.1057471 L20.111047,26.1057471 C20.5436701,26.1057471 20.8943803,26.4564574 20.8943803,26.8890805 L20.8943803,28.6941781 C20.8943803,29.1268012 20.5436701,29.4775115 20.111047,29.4775115 L18.3059023,29.4775115 C17.8732793,29.4775115 17.522569,29.1268012 17.522569,28.6941781 L17.522569,26.8891196 C17.522569,26.4564965 17.8732793,26.1057863 18.3059023,26.1057863 L18.3059493,26.1057471 Z" transform="rotate(-45.001 19.208 27.792)"/>
    <path stroke="#00BCD4" stroke-linecap="round" stroke-linejoin="round" stroke-width="2" d="M18.3059504,17.522457 L20.111048,17.522457 C20.5436711,17.522457 20.8943814,17.8731673 20.8943814,18.3057904 L20.8943814,20.110888 C20.8943814,20.5435111 20.5436711,20.8942214 20.111048,20.8942214 L18.3059034,20.8942214 C17.8732803,20.8942214 17.52257,20.5435111 17.52257,20.110888 L17.52257,18.3058295 C17.52257,17.8732065 17.8732803,17.5224962 18.3059034,17.5224962 L18.3059504,17.522457 Z" transform="rotate(-45.001 19.208 19.208)"/>
    <path stroke="#00BCD4" stroke-linecap="round" stroke-linejoin="round" stroke-width="2" d="M22.5974667,21.8141108 L24.4025643,21.8141108 C24.8351873,21.8141108 25.1858977,22.1648212 25.1858977,22.5974442 L25.1858977,24.4025418 C25.1858977,24.8351649 24.8351873,25.1858752 24.4025643,25.1858752 L22.5974197,25.1858752 C22.1647966,25.1858752 21.8140863,24.8351649 21.8140863,24.4025418 L21.8140863,22.5974755 C21.814078,22.389709 21.8966103,22.1904499 22.0435249,22.0435384 C22.1904395,21.8966267 22.3897002,21.8140984 22.5974667,21.8141108 Z" transform="rotate(-45.001 23.5 23.5)"/>
    <path stroke="#00BCD4" stroke-linecap="round" stroke-linejoin="round" stroke-width="2" d="M22.5974677,13.2308208 L24.4025653,13.2308208 C24.8351884,13.2308208 25.1858987,13.5815311 25.1858987,14.0141541 L25.1858987,15.8192518 C25.1858987,16.2518749 24.8351884,16.6025851 24.4025653,16.6025851 L22.5974207,16.6025851 C22.1647977,16.6025851 21.8140873,16.2518749 21.8140873,15.8192518 L21.8140873,14.0141854 C21.814079,13.806419 21.8966113,13.6071599 22.0435259,13.4602483 C22.1904405,13.3133366 22.3897012,13.2308083 22.5974677,13.2308208 Z" transform="rotate(-45.001 23.5 14.917)"/>
    <path stroke="#00BCD4" stroke-linecap="round" stroke-linejoin="round" stroke-width="2" d="M26.8889845,17.5224633 L28.6940822,17.5224633 C29.1267052,17.5224633 29.4774155,17.8731736 29.4774155,18.3057966 L29.4774155,20.1108943 C29.4774155,20.5435174 29.1267052,20.8942276 28.6940822,20.8942276 L26.8889375,20.8942276 C26.4563144,20.8942276 26.1056042,20.5435174 26.1056042,20.1108943 L26.1056042,18.3058358 C26.1056042,17.8732128 26.4563144,17.5225025 26.8889375,17.5225025 L26.8889845,17.5224633 Z" transform="rotate(-45.001 27.792 19.208)"/>
    <path stroke="#00BCD4" stroke-linecap="round" stroke-linejoin="round" stroke-width="2" d="M26.8889858,8.93917378 L28.6940834,8.93917378 C29.1267065,8.93917378 29.4774168,9.2898841 29.4774168,9.72250712 L29.4774168,11.5276048 C29.4774168,11.9602279 29.1267065,12.3109381 28.6940834,12.3109381 L26.8889388,12.3109381 C26.4563157,12.3109381 26.1056054,11.9602279 26.1056054,11.5276048 L26.1056054,9.72254628 C26.1056054,9.28992327 26.4563157,8.93921295 26.8889388,8.93921295 L26.8889858,8.93917378 Z" transform="rotate(-45.001 27.792 10.625)"/>
    <path stroke="#00BCD4" stroke-linecap="round" stroke-linejoin="round" stroke-width="2" d="M31.1805097,13.2308193 L32.9856074,13.2308193 C33.4182305,13.2308193 33.7689407,13.5815295 33.7689407,14.0141526 L33.7689407,15.8192503 C33.7689407,16.2518733 33.4182305,16.6025836 32.9856074,16.6025836 L31.1804627,16.6025836 C30.7478397,16.6025836 30.3971294,16.2518733 30.3971294,15.8192503 L30.3971294,14.0141839 C30.3971294,13.5815608 30.7478397,13.2308506 31.1804627,13.2308506 L31.1805097,13.2308193 Z" transform="rotate(-45.001 32.083 14.917)"/>
    <path stroke="#00BCD4" stroke-linecap="round" stroke-linejoin="round" stroke-width="2" d="M35.4720265,17.5224617 L37.2771242,17.5224617 C37.7097472,17.5224617 38.0604575,17.873172 38.0604575,18.3057951 L38.0604575,20.1108927 C38.0604575,20.5435158 37.7097472,20.8942261 37.2771242,20.8942261 L35.4719795,20.8942261 C35.0393564,20.8942261 34.6886462,20.5435158 34.6886462,20.1108927 L34.6886462,18.3058342 C34.6886462,17.8732112 35.0393564,17.5225009 35.4719795,17.5225009 L35.4720265,17.5224617 Z" transform="rotate(-45.001 36.375 19.208)"/>
    <path stroke="#00BCD4" stroke-linecap="round" stroke-linejoin="round" stroke-width="2" d="M39.7635577,13.2308119 L41.5686554,13.2308119 C42.0012785,13.2308119 42.3519887,13.5815222 42.3519887,14.0141452 L42.3519887,15.8192429 C42.3519887,16.251866 42.0012785,16.6025762 41.5686554,16.6025762 L39.763495,16.6025762 C39.330872,16.6025762 38.9801617,16.251866 38.9801617,15.8192429 L38.9801617,14.0141765 C38.9801534,13.8064073 39.0626878,13.6071459 39.2096058,13.4602338 C39.3565238,13.3133217 39.5557885,13.2307953 39.7635577,13.2308119 Z" transform="rotate(-45.001 40.666 14.917)"/>
    <path stroke="#00BCD4" stroke-linecap="round" stroke-linejoin="round" stroke-width="2" d="M20.8197724,26.1057482 L34.7632937,26.1057482 C35.1959168,26.1057482 35.5466271,26.4564585 35.5466271,26.8890815 L35.5466271,28.6941792 C35.5466271,29.1268022 35.1959168,29.4775125 34.7632937,29.4775125 L20.8197332,29.4775125 C20.3871101,29.4775125 20.0363999,29.1268022 20.0363999,28.6941792 L20.0363999,26.8891207 C20.0363999,26.4564976 20.3871101,26.1057873 20.8197332,26.1057873 L20.8197724,26.1057482 Z" transform="rotate(-45.001 27.792 27.792)"/>
    <path stroke="#00BCD4" stroke-linecap="round" stroke-linejoin="round" stroke-width="2" d="M33.3262638,3.75874743 L35.1313614,3.75874743 C35.5639845,3.75874743 35.9146948,4.10945771 35.9146948,4.54208076 L35.9146948,12.4163746 C35.9146948,12.8489976 35.5639845,13.1997079 35.1313614,13.1997079 L33.3262168,13.1997079 C32.8935938,13.1997079 32.5428834,12.8489976 32.5428834,12.4163746 L32.5428834,4.54211209 C32.5428751,4.3343456 32.6254075,4.13508653 32.772322,3.9881749 C32.9192366,3.84126328 33.1184973,3.75873496 33.3262638,3.75874743 Z" transform="rotate(-45.001 34.229 8.48)"/>
    <path stroke="#00BCD4" stroke-linecap="round" stroke-linejoin="round" stroke-width="2" d="M13.572378 13.8770868L12.4468612 15.002635C12.2195624 15.2299427 12.1842983 15.5860848 12.3626058 15.8535543L13.9632927 18.2546512 16.824308 15.3935575 14.4232817 13.7928237C14.1558184 13.614508 13.799673 13.6497763 13.572378 13.8770868zM.783333333.783333333C.783333333.783333333 10.1833333 0 11.75 3.91666667 13.3166667 7.83333333 7.68846367 9.545559 12.5333333 14.1"/>
  </g>
</svg>
