<svg viewBox="0 0 42 42" xmlns="http://www.w3.org/2000/svg">
  <defs>
    <filter x="-.5%" y="-.7%" width="101%" height="101.9%" filterUnits="objectBoundingBox" id="a">
      <feOffset dy="2" in="SourceAlpha" result="shadowOffsetOuter1"/>
      <feGaussianBlur stdDeviation="2" in="shadowOffsetOuter1" result="shadowBlurOuter1"/>
      <feColorMatrix values="0 0 0 0 0 0 0 0 0 0 0 0 0 0 0 0 0 0 0.5 0" in="shadowBlurOuter1" result="shadowMatrixOuter1"/>
      <feMerge>
        <feMergeNode in="shadowMatrixOuter1"/>
        <feMergeNode in="SourceGraphic"/>
      </feMerge>
    </filter>
  </defs>
  <g filter="url(#a)" transform="translate(-1118 -286)" fill="none" fill-rule="evenodd">
    <path d="M1147.789 299.014h-.573c4.118 0 6.103 3.157 6.103 7.13v13.95c0 .24-.312.541-.56.541h1.68c.248 0 .56-.3.56-.54v-13.952h.001c0-3.972-3.094-7.13-7.211-7.13" fill="#315ED8" fill-rule="nonzero"/>
    <path d="M1125.595 320.635c-.462 0-.865-.513-.865-1.104v-19.405c0-.591.366-1.112.828-1.112h3.496c.461 0 .865.517.865 1.109v19.441c0 .591-.404 1.071-.865 1.071h-3.46z" fill="#3D83F3" fill-rule="nonzero"/>
    <path d="M1125.667 300.13c0-.59.382-1.112.863-1.112h3.389c-.016 0-.03-.004-.046-.004h-4.858c-.64 0-1.15.52-1.15 1.112v19.405c0 .591.561 1.104 1.201 1.104h1.468c-.466-.024-.867-.523-.867-1.1V300.13zm4.252.613c0 .01.003.02.003.029v-.007c0-.008-.003-.015-.003-.022" fill="#FFF" fill-rule="nonzero"/>
    <path d="M1127.771 289.5c1.653.002 3.017 1.76 3.013 3.901-.004 2.241-1.448 3.93-3.033 3.882-1.608.042-3.022-1.689-3.021-3.897 0-2.14 1.368-3.888 3.041-3.886" fill="#FFE100" fill-rule="nonzero"/>
    <path d="M1124.645 293.386c0-1.983 1.176-3.624 2.68-3.855-.15-.019-.3-.031-.454-.031-2.13-.002-3.871 1.745-3.871 3.886 0 2.208 1.799 3.939 3.845 3.897.157.003.312-.007.466-.023-1.456-.201-2.666-1.832-2.666-3.874" fill="#FFF" fill-rule="nonzero"/>
    <path d="M1126.91 289.5c2.126.002 3.878 1.76 3.874 3.901-.005 2.241-1.861 3.93-3.9 3.882-2.068.042-3.885-1.689-3.884-3.897 0-2.14 1.76-3.888 3.91-3.886z" stroke="#000" stroke-width="2"/>
    <path d="M1123.865 301.786v-1.66a1.12 1.12 0 0 1 1.104-1.112h4.662c.614 0 1.153.517 1.153 1.109v19.442c0 .591-.539 1.07-1.153 1.07h-4.613c-.615 0-1.153-.513-1.153-1.104v-13.309" stroke="#000" stroke-width="2" stroke-linecap="round" stroke-linejoin="round"/>
    <path d="M1124.73 304.635c0-.239-.388-.432-.865-.432-.478 0-.865.193-.865.432s.387.433.865.433c.477 0 .865-.194.865-.433" fill="#000" fill-rule="nonzero"/>
    <path d="M1155 306.143c0-3.972-3.016-7.13-7.03-7.13h-1.151c-2.197 0-4.308 1.046-5.475 2.703l-.546.54v-2.161c0-.24-.304-.54-.546-.54h-5.463c-.242 0-.546.234-.546.473v20.17c0 .239.304.433.546.433l6.009.001c.242 0 .546-.194.546-.433v-11.653c0-2.014 1.503-3.686 3.538-3.709a3.707 3.707 0 0 1 2.66 1.073c.67.662.903 1.579.903 2.59v11.595c0 .24.304.54.546.54h5.463c.242 0 .546-.3.546-.54v-13.952z" stroke="#000" stroke-width="2"/>
  </g>
</svg>
