<svg viewBox="0 0 55 54" xmlns="http://www.w3.org/2000/svg" xmlns:xlink="http://www.w3.org/1999/xlink">
  <defs>
    <filter x="-.5%" y="-.7%" width="101%" height="101.9%" filterUnits="objectBoundingBox" id="a">
      <feOffset dy="2" in="SourceAlpha" result="shadowOffsetOuter1"/>
      <feGaussianBlur stdDeviation="2" in="shadowOffsetOuter1" result="shadowBlurOuter1"/>
      <feColorMatrix values="0 0 0 0 0 0 0 0 0 0 0 0 0 0 0 0 0 0 0.5 0" in="shadowBlurOuter1" result="shadowMatrixOuter1"/>
      <feMerge>
        <feMergeNode in="shadowMatrixOuter1"/>
        <feMergeNode in="SourceGraphic"/>
      </feMerge>
    </filter>
    <path d="M1.87 10.136c.297 1.413 1.019 2.242 1.741 2.732h7.611c.926-.64 1.87-1.846 1.87-4.107V2.92s.113-1.45 1.428-1.922c0 0 .759-.547-.056-.848 0 0-3.611-.302-3.611 2.713V7.31s.148 1.64-.704 2.318V4.126s.056-1.752.945-2.412c0 0 .592-1.073-.704-.79 0 0-2.482.357-2.593 3.315l-.055 5.652h-.593L7.093 4.24C6.98 1.3 4.5.923 4.5.923c-1.296-.301-.704.791-.704.791.89.66.945 2.412.945 2.412v5.558c-.852-.622-.704-2.374-.704-2.374V2.864C4.037-.151.426.15.426.15-.407.452.37.999.37.999c1.297.49 1.426 1.921 1.426 1.921v4.09l.074 3.127z" id="b"/>
  </defs>
  <g filter="url(#a)" transform="translate(-1068 -279)" fill="none" fill-rule="evenodd">
    <path d="M1109 321.5c0 2.769-6.046 5-13.5 5s-13.5-2.251-13.5-5c0-2.769 6.046-5 13.5-5s13.5 2.231 13.5 5z" fill="#9EDCF2" fill-rule="nonzero"/>
    <g transform="translate(1088 319.5)">
      <mask id="c" fill="#fff">
        <use xlink:href="#b"/>
      </mask>
      <path d="M20.907 1.658c0 2.619-5.963 4.729-13.314 4.729-7.352 0-13.315-2.129-13.315-4.729 0-2.619 5.963-4.729 13.315-4.729 7.351 0 13.314 2.11 13.314 4.729z" fill="#7DBCE7" fill-rule="nonzero" mask="url(#c)"/>
    </g>
    <path d="M1079.504 306.5l-.494 1.398s-.117.505.447.602c.612-.02.565-.485.518-.621l-.47-1.379z" fill="#9EDCF2" fill-rule="nonzero"/>
    <path d="M1119.962 300.92l.038-.173c-4.039-.81-8.173-.829-10.68-.713.401-1.484.535-3.219.535-5.127 0-2.756-1.033-4.954-2.68-6.611.288-.945.67-3.046-.382-5.725 0 0-1.876-.598-6.144 2.274a21.322 21.322 0 0 0-5.226-.636c-1.952 0-3.923.25-5.78.752-4.402-3.026-6.336-2.41-6.336-2.41-1.263 3.181-.478 5.552-.248 6.13-1.493 1.62-2.393 3.682-2.393 6.207 0 1.908.21 3.623.746 5.108-2.526-.097-6.507-.058-10.412.732l.038.173c3.905-.79 7.924-.81 10.432-.713.115.309.249.617.383.906-2.489.077-6.719.405-10.776 1.561l.057.174c4.096-1.157 8.364-1.465 10.834-1.542 1.493 2.776 4.402 4.587 9.608 5.146-.746.501-1.493 1.35-1.799 2.795-1.015.482-4.192 1.677-6.106-1.638 0 0-1.072-1.966-3.12-2.12 0 0-1.99-.039-.134 1.252 0 0 1.32.637 2.24 3.007 0 0 1.205 4.048 6.967 2.737v4.144s-.115 1.485-1.474 1.967c0 0-.804.558.057.867 0 0 3.733.308 3.733-2.776v-4.549s-.153-1.811.727-2.428v7.478s-.057 1.793-.976 2.468c0 0-.612 1.098.727.81 0 0 2.565-.367 2.68-3.393l.057-7.575h.613l.057 7.575c.115 3.007 2.68 3.392 2.68 3.392 1.34.309.727-.81.727-.81-.918-.674-.976-2.467-.976-2.467v-7.42c.88.694.728 2.37.728 2.37v4.55c0 3.083 3.732 2.775 3.732 2.775.861-.309.057-.867.057-.867-1.34-.502-1.473-1.967-1.473-1.967v-5.975c0-2.332-.977-3.566-1.934-4.202 5.551-.559 8.212-2.351 9.437-5.165 2.43.057 6.814.366 10.986 1.56l.058-.173c-4.154-1.175-8.499-1.484-10.968-1.56.115-.29.21-.58.307-.887 2.564-.097 6.718-.097 10.776.713z" fill="#010101" fill-rule="nonzero"/>
    <path d="M1104.096 294.622c1.192 1.125 1.904 2.468 1.904 3.909 0 6.791-4.923 6.969-11 6.969s-11-.948-11-6.97c0-1.44.692-2.783 1.885-3.889 1.98-1.855 5.327-.868 9.115-.868 3.788 0 7.115-1.007 9.096.849z" fill="#F5CCB3" fill-rule="nonzero"/>
    <path d="M1092 298.5c0 1.667-1.113 3-2.5 3s-2.5-1.35-2.5-3c0-1.667 1.113-3 2.5-3 1.387-.017 2.5 1.333 2.5 3z" fill="#FFF" fill-rule="nonzero"/>
    <path d="M1091 298.5c0 1.105-.684 2-1.5 2-.835 0-1.5-.895-1.5-2s.684-2 1.5-2 1.5.895 1.5 2z" fill="#AF5C51" fill-rule="nonzero"/>
    <path d="M1104 298.5c0 1.667-1.113 3-2.5 3s-2.5-1.35-2.5-3c0-1.667 1.113-3 2.5-3 1.366-.017 2.5 1.333 2.5 3z" fill="#FFF" fill-rule="nonzero"/>
    <path d="M1103 298.5c0 1.105-.684 2-1.5 2-.835 0-1.5-.895-1.5-2s.684-2 1.5-2c.835 0 1.5.895 1.5 2zm-7 3.5c0 .267-.217.5-.5.5a.501.501 0 0 1-.5-.5c0-.283.217-.5.5-.5.267 0 .5.217.5.5zm2.013-20.295c-.043-.081.022-.162.13-.195a.22.22 0 0 1 .258.098c.173.357.603.584 1.099.584s.926-.244 1.099-.584a.22.22 0 0 1 .258-.098c.108.033.173.114.13.195-.216.47-.82.795-1.487.795-.668 0-1.271-.325-1.487-.795z" fill="#AF5C51" fill-rule="nonzero"/>
    <path d="M1081 306c0 .286-.214.5-.5.5a.503.503 0 0 1-.5-.5c0-.286.214-.5.5-.5.286 0 .5.214.5.5zm2 1c0 .286-.214.5-.5.5a.503.503 0 0 1-.5-.5c0-.286.214-.5.5-.5.286 0 .5.214.5.5zm1 .002a.487.487 0 0 1-.5.498.502.502 0 0 1-.5-.498c0-.285.214-.499.5-.499.286-.035.5.214.5.499zm0 2a.487.487 0 0 1-.5.498.502.502 0 0 1-.5-.498c0-.285.214-.499.5-.499.286-.035.5.214.5.499z" fill="#C4E5D9" fill-rule="nonzero"/>
    <path d="M1085 309c0 .286-.214.5-.5.5a.503.503 0 0 1-.5-.5c0-.286.214-.5.5-.5.286 0 .5.214.5.5zm1 1.002a.487.487 0 0 1-.5.498.502.502 0 0 1-.5-.498c0-.285.214-.499.5-.499.286-.035.5.214.5.499zm1 .998c0 .286-.214.5-.5.5a.503.503 0 0 1-.5-.5c0-.286.214-.5.5-.5.286 0 .5.214.5.5zm1 0c0 .286-.214.5-.5.5a.503.503 0 0 1-.5-.5c0-.286.214-.5.5-.5.286 0 .5.214.5.5zm1-1c0 .286-.214.5-.5.5a.503.503 0 0 1-.5-.5c0-.286.214-.5.5-.5.262 0 .5.214.5.5z" fill="#C4E5D9" fill-rule="nonzero"/>
  </g>
</svg>
